<svg width="42" height="65" viewBox="0 0 42 65" fill="none" xmlns="http://www.w3.org/2000/svg">
<circle cx="21" cy="21" r="21" fill="#F6D1B9" fill-opacity="0.5"/>
<g clip-path="url(#clip0_116_4534)">
<path d="M28.4443 11H13.5557C12.1464 11 11 12.1465 11 13.5557V28.4443C11 29.8535 12.1464 31 13.5557 31H28.4443C29.8536 31 31 29.8535 31 28.4443V13.5557C31 12.1465 29.8536 11 28.4443 11ZM29.822 28.4443C29.822 29.204 29.2039 29.822 28.4443 29.822H13.5557C12.796 29.822 12.178 29.2039 12.178 28.4443V26.2956L16.0552 22.9968C16.1235 22.9385 16.2102 22.9062 16.3 22.9057C16.3898 22.9051 16.4769 22.9364 16.5459 22.9938L18.9745 25.0105C19.2087 25.205 19.5525 25.189 19.7677 24.9736L25.5383 19.1941C25.6426 19.0896 25.7642 19.0795 25.8277 19.0827C25.891 19.086 26.0111 19.1086 26.1042 19.2232L29.822 23.8009L29.822 28.4443ZM29.822 21.9322L27.0186 18.4804C26.8808 18.311 26.709 18.1723 26.5142 18.0734C26.3195 17.9745 26.1062 17.9175 25.888 17.9062C25.4479 17.8839 25.0163 18.0496 24.7047 18.3617L19.3138 23.761L17.2985 22.0876C17.0163 21.8526 16.6602 21.7249 16.2929 21.7271C15.9257 21.7293 15.5711 21.8612 15.2918 22.0996L12.178 24.7489V13.5557C12.178 12.7961 12.796 12.178 13.5557 12.178H28.4443C29.204 12.178 29.822 12.7961 29.822 13.5557V21.9322Z" fill="#3A120A"/>
<path d="M17.2954 13.4607C15.7292 13.4607 14.4551 14.7349 14.4551 16.301C14.4551 17.8672 15.7293 19.1414 17.2954 19.1414C18.8616 19.1414 20.1358 17.8672 20.1358 16.301C20.1358 14.7349 18.8616 13.4607 17.2954 13.4607ZM17.2954 17.9634C16.3788 17.9634 15.6331 17.2176 15.6331 16.301C15.6331 15.3844 16.3788 14.6387 17.2954 14.6387C18.2121 14.6387 18.9578 15.3844 18.9578 16.301C18.9578 17.2176 18.2121 17.9634 17.2954 17.9634Z" fill="#3A120A"/>
</g>
<path d="M6.39 55.05V62H5.25V55.05H6.39ZM14.5567 56.4C14.9901 56.4 15.3767 56.49 15.7167 56.67C16.0634 56.85 16.3334 57.1167 16.5267 57.47C16.7267 57.8233 16.8267 58.25 16.8267 58.75V62H15.6967V58.92C15.6967 58.4267 15.5734 58.05 15.3267 57.79C15.0801 57.5233 14.7434 57.39 14.3167 57.39C13.8901 57.39 13.5501 57.5233 13.2967 57.79C13.0501 58.05 12.9267 58.4267 12.9267 58.92V62H11.7967V58.92C11.7967 58.4267 11.6734 58.05 11.4267 57.79C11.1801 57.5233 10.8434 57.39 10.4167 57.39C9.99005 57.39 9.65005 57.5233 9.39672 57.79C9.15005 58.05 9.02672 58.4267 9.02672 58.92V62H7.88672V56.49H9.02672V57.12C9.21339 56.8933 9.45005 56.7167 9.73672 56.59C10.0234 56.4633 10.3301 56.4 10.6567 56.4C11.0967 56.4 11.4901 56.4933 11.8367 56.68C12.1834 56.8667 12.4501 57.1367 12.6367 57.49C12.8034 57.1567 13.0634 56.8933 13.4167 56.7C13.7701 56.5 14.1501 56.4 14.5567 56.4ZM17.8973 59.22C17.8973 58.6667 18.0107 58.1767 18.2373 57.75C18.4707 57.3233 18.784 56.9933 19.1773 56.76C19.5773 56.52 20.0173 56.4 20.4973 56.4C20.9307 56.4 21.3073 56.4867 21.6273 56.66C21.954 56.8267 22.214 57.0367 22.4073 57.29V56.49H23.5573V62H22.4073V61.18C22.214 61.44 21.9507 61.6567 21.6173 61.83C21.284 62.0033 20.904 62.09 20.4773 62.09C20.004 62.09 19.5707 61.97 19.1773 61.73C18.784 61.4833 18.4707 61.1433 18.2373 60.71C18.0107 60.27 17.8973 59.7733 17.8973 59.22ZM22.4073 59.24C22.4073 58.86 22.3273 58.53 22.1673 58.25C22.014 57.97 21.8107 57.7567 21.5573 57.61C21.304 57.4633 21.0307 57.39 20.7373 57.39C20.444 57.39 20.1707 57.4633 19.9173 57.61C19.664 57.75 19.4573 57.96 19.2973 58.24C19.144 58.5133 19.0673 58.84 19.0673 59.22C19.0673 59.6 19.144 59.9333 19.2973 60.22C19.4573 60.5067 19.664 60.7267 19.9173 60.88C20.1773 61.0267 20.4507 61.1 20.7373 61.1C21.0307 61.1 21.304 61.0267 21.5573 60.88C21.8107 60.7333 22.014 60.52 22.1673 60.24C22.3273 59.9533 22.4073 59.62 22.4073 59.24ZM27.2747 56.4C27.7014 56.4 28.078 56.4867 28.4047 56.66C28.738 56.8267 28.998 57.0367 29.1847 57.29V56.49H30.3347V62.09C30.3347 62.5967 30.228 63.0467 30.0147 63.44C29.8014 63.84 29.4914 64.1533 29.0847 64.38C28.6847 64.6067 28.2047 64.72 27.6447 64.72C26.898 64.72 26.278 64.5433 25.7847 64.19C25.2914 63.8433 25.0114 63.37 24.9447 62.77H26.0747C26.1614 63.0567 26.3447 63.2867 26.6247 63.46C26.9114 63.64 27.2514 63.73 27.6447 63.73C28.1047 63.73 28.4747 63.59 28.7547 63.31C29.0414 63.03 29.1847 62.6233 29.1847 62.09V61.17C28.9914 61.43 28.728 61.65 28.3947 61.83C28.068 62.0033 27.6947 62.09 27.2747 62.09C26.7947 62.09 26.3547 61.97 25.9547 61.73C25.5614 61.4833 25.248 61.1433 25.0147 60.71C24.788 60.27 24.6747 59.7733 24.6747 59.22C24.6747 58.6667 24.788 58.1767 25.0147 57.75C25.248 57.3233 25.5614 56.9933 25.9547 56.76C26.3547 56.52 26.7947 56.4 27.2747 56.4ZM29.1847 59.24C29.1847 58.86 29.1047 58.53 28.9447 58.25C28.7914 57.97 28.588 57.7567 28.3347 57.61C28.0814 57.4633 27.808 57.39 27.5147 57.39C27.2214 57.39 26.948 57.4633 26.6947 57.61C26.4414 57.75 26.2347 57.96 26.0747 58.24C25.9214 58.5133 25.8447 58.84 25.8447 59.22C25.8447 59.6 25.9214 59.9333 26.0747 60.22C26.2347 60.5067 26.4414 60.7267 26.6947 60.88C26.9547 61.0267 27.228 61.1 27.5147 61.1C27.808 61.1 28.0814 61.0267 28.3347 60.88C28.588 60.7333 28.7914 60.52 28.9447 60.24C29.1047 59.9533 29.1847 59.62 29.1847 59.24ZM36.882 59.11C36.882 59.3167 36.8687 59.5033 36.842 59.67H32.632C32.6654 60.11 32.8287 60.4633 33.122 60.73C33.4154 60.9967 33.7754 61.13 34.202 61.13C34.8154 61.13 35.2487 60.8733 35.502 60.36H36.732C36.5654 60.8667 36.262 61.2833 35.822 61.61C35.3887 61.93 34.8487 62.09 34.202 62.09C33.6754 62.09 33.202 61.9733 32.782 61.74C32.3687 61.5 32.042 61.1667 31.802 60.74C31.5687 60.3067 31.452 59.8067 31.452 59.24C31.452 58.6733 31.5654 58.1767 31.792 57.75C32.0254 57.3167 32.3487 56.9833 32.762 56.75C33.182 56.5167 33.662 56.4 34.202 56.4C34.722 56.4 35.1854 56.5133 35.592 56.74C35.9987 56.9667 36.3154 57.2867 36.542 57.7C36.7687 58.1067 36.882 58.5767 36.882 59.11ZM35.692 58.75C35.6854 58.33 35.5354 57.9933 35.242 57.74C34.9487 57.4867 34.5854 57.36 34.152 57.36C33.7587 57.36 33.422 57.4867 33.142 57.74C32.862 57.9867 32.6954 58.3233 32.642 58.75H35.692Z" fill="#3A120A"/>
<defs>
<clipPath id="clip0_116_4534">
<rect width="20" height="20" fill="white" transform="translate(11 11)"/>
</clipPath>
</defs>
</svg>
