<svg width="42" height="64" viewBox="0 0 42 64" fill="none" xmlns="http://www.w3.org/2000/svg">
<circle cx="21" cy="21" r="21" fill="#F6D1B9" fill-opacity="0.5"/>
<path d="M27.9452 15.1511L24.1787 11.5877C23.7781 11.2087 23.2537 11 22.7022 11H15.5312C14.3466 11 13.3828 11.9638 13.3828 13.1484V28.8516C13.3828 30.0362 14.3466 31 15.5312 31H26.4688C27.6534 31 28.6172 30.0362 28.6172 28.8516V16.7118C28.6172 16.1239 28.3723 15.5551 27.9452 15.1511ZM26.8071 15.6875H23.8906C23.7829 15.6875 23.6953 15.5999 23.6953 15.4922V12.7436L26.8071 15.6875ZM26.4688 29.8281H15.5312C14.9928 29.8281 14.5547 29.39 14.5547 28.8516V13.1484C14.5547 12.61 14.9928 12.1719 15.5312 12.1719H22.5234V15.4922C22.5234 16.2461 23.1368 16.8594 23.8906 16.8594H27.4453V28.8516C27.4453 29.39 27.0072 29.8281 26.4688 29.8281Z" fill="#3A120A"/>
<path d="M25.1797 18.8125H16.5859C16.2623 18.8125 16 19.0748 16 19.3984C16 19.722 16.2623 19.9844 16.5859 19.9844H25.1797C25.5033 19.9844 25.7656 19.722 25.7656 19.3984C25.7656 19.0748 25.5033 18.8125 25.1797 18.8125ZM25.1797 21.9375H16.5859C16.2623 21.9375 16 22.1998 16 22.5234C16 22.847 16.2623 23.1094 16.5859 23.1094H25.1797C25.5033 23.1094 25.7656 22.847 25.7656 22.5234C25.7656 22.1998 25.5033 21.9375 25.1797 21.9375ZM19.4266 25.0625H16.5859C16.2623 25.0625 16 25.3248 16 25.6484C16 25.972 16.2623 26.2344 16.5859 26.2344H19.4266C19.7502 26.2344 20.0125 25.972 20.0125 25.6484C20.0125 25.3248 19.7502 25.0625 19.4266 25.0625Z" fill="#3A120A"/>
<path d="M9.38004 55.05V55.98H6.43004V58.03H8.73004V58.96H6.43004V62H5.29004V55.05H9.38004ZM11.0165 55.76C10.8099 55.76 10.6365 55.69 10.4965 55.55C10.3565 55.41 10.2865 55.2367 10.2865 55.03C10.2865 54.8233 10.3565 54.65 10.4965 54.51C10.6365 54.37 10.8099 54.3 11.0165 54.3C11.2165 54.3 11.3865 54.37 11.5265 54.51C11.6665 54.65 11.7365 54.8233 11.7365 55.03C11.7365 55.2367 11.6665 55.41 11.5265 55.55C11.3865 55.69 11.2165 55.76 11.0165 55.76ZM11.5765 56.49V62H10.4365V56.49H11.5765ZM12.6932 59.24C12.6932 58.6733 12.8066 58.1767 13.0332 57.75C13.2666 57.3167 13.5866 56.9833 13.9932 56.75C14.3999 56.5167 14.8666 56.4 15.3932 56.4C16.0599 56.4 16.6099 56.56 17.0432 56.88C17.4832 57.1933 17.7799 57.6433 17.9332 58.23H16.7032C16.6032 57.9567 16.4432 57.7433 16.2232 57.59C16.0032 57.4367 15.7266 57.36 15.3932 57.36C14.9266 57.36 14.5532 57.5267 14.2732 57.86C13.9999 58.1867 13.8632 58.6467 13.8632 59.24C13.8632 59.8333 13.9999 60.2967 14.2732 60.63C14.5532 60.9633 14.9266 61.13 15.3932 61.13C16.0532 61.13 16.4899 60.84 16.7032 60.26H17.9332C17.7732 60.82 17.4732 61.2667 17.0332 61.6C16.5932 61.9267 16.0466 62.09 15.3932 62.09C14.8666 62.09 14.3999 61.9733 13.9932 61.74C13.5866 61.5 13.2666 61.1667 13.0332 60.74C12.8066 60.3067 12.6932 59.8067 12.6932 59.24ZM21.9193 56.4C22.3393 56.4 22.7127 56.49 23.0393 56.67C23.3727 56.85 23.6327 57.1167 23.8193 57.47C24.0127 57.8233 24.1093 58.25 24.1093 58.75V62H22.9793V58.92C22.9793 58.4267 22.856 58.05 22.6093 57.79C22.3627 57.5233 22.026 57.39 21.5993 57.39C21.1727 57.39 20.8327 57.5233 20.5793 57.79C20.3327 58.05 20.2093 58.4267 20.2093 58.92V62H19.0693V54.6H20.2093V57.13C20.4027 56.8967 20.646 56.7167 20.9393 56.59C21.2393 56.4633 21.566 56.4 21.9193 56.4ZM26.1435 55.76C25.9368 55.76 25.7635 55.69 25.6235 55.55C25.4835 55.41 25.4135 55.2367 25.4135 55.03C25.4135 54.8233 25.4835 54.65 25.6235 54.51C25.7635 54.37 25.9368 54.3 26.1435 54.3C26.3435 54.3 26.5135 54.37 26.6535 54.51C26.7935 54.65 26.8635 54.8233 26.8635 55.03C26.8635 55.2367 26.7935 55.41 26.6535 55.55C26.5135 55.69 26.3435 55.76 26.1435 55.76ZM26.7035 56.49V62H25.5635V56.49H26.7035ZM33.2502 59.11C33.2502 59.3167 33.2369 59.5033 33.2102 59.67H29.0002C29.0335 60.11 29.1969 60.4633 29.4902 60.73C29.7835 60.9967 30.1435 61.13 30.5702 61.13C31.1835 61.13 31.6169 60.8733 31.8702 60.36H33.1002C32.9335 60.8667 32.6302 61.2833 32.1902 61.61C31.7569 61.93 31.2169 62.09 30.5702 62.09C30.0435 62.09 29.5702 61.9733 29.1502 61.74C28.7369 61.5 28.4102 61.1667 28.1702 60.74C27.9369 60.3067 27.8202 59.8067 27.8202 59.24C27.8202 58.6733 27.9335 58.1767 28.1602 57.75C28.3935 57.3167 28.7169 56.9833 29.1302 56.75C29.5502 56.5167 30.0302 56.4 30.5702 56.4C31.0902 56.4 31.5535 56.5133 31.9602 56.74C32.3669 56.9667 32.6835 57.2867 32.9102 57.7C33.1369 58.1067 33.2502 58.5767 33.2502 59.11ZM32.0602 58.75C32.0535 58.33 31.9035 57.9933 31.6102 57.74C31.3169 57.4867 30.9535 57.36 30.5202 57.36C30.1269 57.36 29.7902 57.4867 29.5102 57.74C29.2302 57.9867 29.0635 58.3233 29.0102 58.75H32.0602ZM35.5121 57.29C35.6787 57.01 35.8987 56.7933 36.1721 56.64C36.4521 56.48 36.7821 56.4 37.1621 56.4V57.58H36.8721C36.4254 57.58 36.0854 57.6933 35.8521 57.92C35.6254 58.1467 35.5121 58.54 35.5121 59.1V62H34.3721V56.49H35.5121V57.29Z" fill="#3A120A"/>
</svg>
