<svg width="8" height="4" viewBox="0 0 8 4" fill="none" xmlns="http://www.w3.org/2000/svg">
<path d="M7.8419 0.138568C7.7365 0.0461894 7.6117 0 7.46751 0C7.3236 0 7.19895 0.0461894 7.09354 0.138568L4.00527 2.84527L0.906456 0.12933C0.808081 0.04311 0.685112 0 0.537549 0C0.389987 0 0.263505 0.0461894 0.158103 0.138568C0.0527009 0.230947 0 0.340323 0 0.466697C0 0.592825 0.0527009 0.702078 0.158103 0.794457L3.71014 3.89838C3.75231 3.93533 3.79798 3.96157 3.84717 3.97709C3.89635 3.99236 3.94906 4 4.00527 4C4.06148 4 4.11419 3.99236 4.16337 3.97709C4.21256 3.96157 4.25823 3.93533 4.3004 3.89838L7.85244 0.785219C7.95081 0.698999 8 0.592825 8 0.466697C8 0.340323 7.9473 0.230947 7.8419 0.138568Z" fill="#717171"/>
</svg>
