<svg width="9" height="9" viewBox="0 0 9 9" fill="none" xmlns="http://www.w3.org/2000/svg">
<path d="M4.5 5.4583L1.14639 8.81191C1.02091 8.93738 0.861217 9.00012 0.6673 9.00012C0.473384 9.00012 0.313688 8.93738 0.188213 8.81191C0.0627374 8.68643 0 8.52674 0 8.33282C0 8.13891 0.0627374 7.97921 0.188213 7.85373L3.54183 4.50012L0.188213 1.14651C0.0627374 1.02103 0 0.861339 0 0.667422C0 0.473506 0.0627374 0.31381 0.188213 0.188335C0.313688 0.0628594 0.473384 0.00012207 0.6673 0.00012207C0.861217 0.00012207 1.02091 0.0628594 1.14639 0.188335L4.5 3.54195L7.85361 0.188335C7.97909 0.0628594 8.13878 0.00012207 8.3327 0.00012207C8.52662 0.00012207 8.68631 0.0628594 8.81179 0.188335C8.93726 0.31381 9 0.473506 9 0.667422C9 0.861339 8.93726 1.02103 8.81179 1.14651L5.45817 4.50012L8.81179 7.85373C8.93726 7.97921 9 8.13891 9 8.33282C9 8.52674 8.93726 8.68643 8.81179 8.81191C8.68631 8.93738 8.52662 9.00012 8.3327 9.00012C8.13878 9.00012 7.97909 8.93738 7.85361 8.81191L4.5 5.4583Z" fill="#717171"/>
</svg>
