<svg width="20" height="20" viewBox="0 0 20 20" fill="none" xmlns="http://www.w3.org/2000/svg">
<mask id="mask0_1_582" style="mask-type:alpha" maskUnits="userSpaceOnUse" x="0" y="0" width="20" height="20">
<rect width="20" height="20" fill="#D9D9D9"/>
</mask>
<g mask="url(#mask0_1_582)">
<path d="M9.97917 16.125C10.2431 16.125 10.4653 16.0347 10.6458 15.8542C10.8264 15.6736 10.9167 15.4514 10.9167 15.1875V15.0417C11.6944 14.8472 12.3194 14.5347 12.7917 14.1042C13.2639 13.6736 13.5 13.0278 13.5 12.1667C13.5 11.5556 13.3403 10.9861 13.0208 10.4583C12.7014 9.93056 12.0278 9.48611 11 9.125C10.1806 8.84722 9.59389 8.61111 9.24 8.41667C8.88556 8.22222 8.70833 7.95833 8.70833 7.625C8.70833 7.30556 8.81944 7.05889 9.04167 6.885C9.26389 6.71167 9.59722 6.625 10.0417 6.625C10.2917 6.625 10.5069 6.66306 10.6875 6.73917C10.8681 6.81583 11.0208 6.92361 11.1458 7.0625C11.3542 7.28472 11.5625 7.43389 11.7708 7.51C11.9792 7.58667 12.1806 7.58333 12.375 7.5C12.6528 7.38889 12.8439 7.20139 12.9483 6.9375C13.0522 6.67361 13.0347 6.43056 12.8958 6.20833C12.6736 5.86111 12.3958 5.57278 12.0625 5.34333C11.7292 5.11444 11.3611 4.98611 10.9583 4.95833V4.8125C10.9583 4.54861 10.8681 4.32639 10.6875 4.14583C10.5069 3.96528 10.2847 3.875 10.0208 3.875C9.75694 3.875 9.53472 3.96528 9.35417 4.14583C9.17361 4.32639 9.08333 4.54861 9.08333 4.8125V4.95833C8.38889 5.125 7.84028 5.45472 7.4375 5.9475C7.03472 6.44083 6.83333 7 6.83333 7.625C6.83333 8.31944 7.03139 8.88889 7.4275 9.33333C7.82306 9.77778 8.41667 10.1389 9.20833 10.4167C10.0833 10.7361 10.705 11.0139 11.0733 11.25C11.4411 11.4861 11.625 11.7917 11.625 12.1667C11.625 12.5694 11.4861 12.8644 11.2083 13.0517C10.9306 13.2394 10.5694 13.3333 10.125 13.3333C9.80556 13.3333 9.50694 13.2606 9.22917 13.115C8.95139 12.9689 8.72222 12.7431 8.54167 12.4375C8.38889 12.1875 8.205 12.0103 7.99 11.9058C7.77444 11.8019 7.54861 11.7917 7.3125 11.875C7.03472 11.9861 6.84028 12.1667 6.72917 12.4167C6.61806 12.6667 6.625 12.9236 6.75 13.1875C6.98611 13.6597 7.29167 14.0486 7.66667 14.3542C8.04167 14.6597 8.5 14.875 9.04167 15V15.1875C9.04167 15.4514 9.13194 15.6736 9.3125 15.8542C9.49306 16.0347 9.71528 16.125 9.97917 16.125ZM10 19C8.75 19 7.57972 18.7639 6.48917 18.2917C5.39917 17.8194 4.44806 17.1772 3.63583 16.365C2.82306 15.5522 2.18056 14.6006 1.70833 13.51C1.23611 12.42 1 11.25 1 10C1 8.75 1.23611 7.57639 1.70833 6.47917C2.18056 5.38194 2.82306 4.42722 3.63583 3.615C4.44806 2.80222 5.39917 2.16306 6.48917 1.6975C7.57972 1.2325 8.75 1 10 1C11.25 1 12.4236 1.2325 13.5208 1.6975C14.6181 2.16306 15.5731 2.80222 16.3858 3.615C17.1981 4.42722 17.8367 5.38194 18.3017 6.47917C18.7672 7.57639 19 8.75 19 10C19 11.25 18.7672 12.42 18.3017 13.51C17.8367 14.6006 17.1981 15.5522 16.3858 16.365C15.5731 17.1772 14.6181 17.8194 13.5208 18.2917C12.4236 18.7639 11.25 19 10 19Z" fill="#FCDE2F"/>
</g>
</svg>
