<svg width="14" height="16" viewBox="0 0 14 16" fill="none" xmlns="http://www.w3.org/2000/svg">
<path fill-rule="evenodd" clip-rule="evenodd" d="M8.5728 4.40944e-08C8.89182 8.27334e-05 9.20272 0.100537 9.46147 0.287134C9.72023 0.473731 9.91371 0.73701 10.0145 1.03968L10.4272 2.28H12.92C13.1216 2.28 13.3149 2.36007 13.4574 2.5026C13.5999 2.64513 13.68 2.83844 13.68 3.04C13.68 3.24156 13.5999 3.43487 13.4574 3.5774C13.3149 3.71993 13.1216 3.8 12.92 3.8L12.9177 3.85396L12.2588 13.0826C12.2177 13.6577 11.9603 14.1958 11.5383 14.5886C11.1164 14.9815 10.5614 15.1999 9.98488 15.2H3.69512C3.11863 15.1999 2.56356 14.9815 2.14165 14.5886C1.71975 14.1958 1.46232 13.6577 1.4212 13.0826L0.76228 3.8532C0.760905 3.8355 0.760144 3.81775 0.76 3.8C0.558435 3.8 0.365126 3.71993 0.222599 3.5774C0.0800712 3.43487 0 3.24156 0 3.04C0 2.83844 0.0800712 2.64513 0.222599 2.5026C0.365126 2.36007 0.558435 2.28 0.76 2.28H3.2528L3.66548 1.03968C3.76633 0.736887 3.95993 0.47352 4.21883 0.286911C4.47774 0.100304 4.78881 -7.68065e-05 5.10796 4.40944e-08H8.5728ZM4.56 6.08C4.37385 6.08002 4.19418 6.14837 4.05508 6.27206C3.91597 6.39576 3.8271 6.56621 3.80532 6.75108L3.8 6.84V11.4C3.80021 11.5937 3.87439 11.78 4.00736 11.9209C4.14034 12.0617 4.32208 12.1465 4.51546 12.1579C4.70884 12.1692 4.89925 12.1063 5.04779 11.982C5.19634 11.8576 5.2918 11.6813 5.31468 11.4889L5.32 11.4V6.84C5.32 6.63844 5.23993 6.44513 5.0974 6.3026C4.95487 6.16007 4.76156 6.08 4.56 6.08ZM9.12 6.08C8.91844 6.08 8.72513 6.16007 8.5826 6.3026C8.44007 6.44513 8.36 6.63844 8.36 6.84V11.4C8.36 11.6016 8.44007 11.7949 8.5826 11.9374C8.72513 12.0799 8.91844 12.16 9.12 12.16C9.32156 12.16 9.51487 12.0799 9.6574 11.9374C9.79993 11.7949 9.88 11.6016 9.88 11.4V6.84C9.88 6.63844 9.79993 6.44513 9.6574 6.3026C9.51487 6.16007 9.32156 6.08 9.12 6.08ZM8.5728 1.52H5.1072L4.85412 2.28H8.82588L8.5728 1.52Z" fill="#717171" fill-opacity="0.63"/>
</svg>
