<svg width="40" height="41" viewBox="0 0 40 41" fill="none" xmlns="http://www.w3.org/2000/svg">
<circle cx="20" cy="20.5" r="20" fill="#F6D1B9"/>
<path d="M18.7144 11.5C17.6571 11.5 16.7858 12.3713 16.7858 13.4286V14.0715H11.6429C11.2879 14.0715 11 14.3593 11 14.7143C11 15.0693 11.2879 15.3572 11.6429 15.3572H12.9662L13.6418 26.4313C13.7428 28.0906 15.0357 29.5 16.7469 29.5H23.2534C24.9646 29.5 26.2573 28.0906 26.3585 26.4313L27.0339 15.3572H28.3572C28.7123 15.3572 29.0001 15.0693 29.0001 14.7143C29.0001 14.3593 28.7123 14.0715 28.3572 14.0715H23.2143V13.4286C23.2143 12.3713 22.343 11.5 21.2857 11.5H18.7144ZM18.7144 12.7857H21.2858C21.653 12.7857 21.9287 13.0614 21.9287 13.4286V14.0715H18.0715V13.4286C18.0715 13.0614 18.3472 12.7857 18.7144 12.7857ZM14.2544 15.3572H25.7455L25.0749 26.3538C25.01 27.4199 24.2723 28.2145 23.2531 28.2145H16.7465C15.7273 28.2145 14.9896 27.4198 14.9247 26.3538L14.2544 15.3572Z" fill="#3A120A"/>
<path d="M18.0716 18.5715C17.9011 18.5715 17.7375 18.6393 17.617 18.7598C17.4964 18.8803 17.4287 19.0439 17.4287 19.2144V24.3573C17.4287 24.5278 17.4964 24.6914 17.617 24.8119C17.7375 24.9324 17.9011 25.0002 18.0716 25.0002C18.242 25.0002 18.4056 24.9324 18.5262 24.8119C18.6467 24.6914 18.7144 24.5278 18.7144 24.3573V19.2144C18.7144 19.0439 18.6467 18.8803 18.5262 18.7598C18.4056 18.6393 18.242 18.5715 18.0716 18.5715Z" fill="#3A120A"/>
<path d="M21.9285 18.5715C21.758 18.5715 21.5944 18.6393 21.4739 18.7598C21.3534 18.8803 21.2856 19.0439 21.2856 19.2144V24.3573C21.2856 24.5278 21.3534 24.6914 21.4739 24.8119C21.5944 24.9324 21.758 25.0002 21.9285 25.0002C22.099 25.0002 22.2626 24.9324 22.3831 24.8119C22.5036 24.6914 22.5714 24.5278 22.5714 24.3573V19.2144C22.5714 19.0439 22.5036 18.8803 22.3831 18.7598C22.2626 18.6393 22.099 18.5715 21.9285 18.5715Z" fill="#3A120A"/>
</svg>
