<svg width="26" height="26" viewBox="0 0 26 26" fill="none" xmlns="http://www.w3.org/2000/svg">
<path d="M9.042 8.08354C8.294 8.08354 7.67266 8.70484 7.67266 9.45309C7.67266 10.2011 8.29394 10.8226 9.0422 10.8226C9.79019 10.8226 10.4117 10.2013 10.4117 9.45309C10.4117 8.70509 9.79046 8.08354 9.0422 8.08354H9.042Z" fill="#3A120A" stroke="#3A120A" stroke-width="0.1"/>
<path d="M16.9563 8.08354C16.2083 8.08354 15.5867 8.70483 15.5867 9.45309C15.5867 10.2011 16.208 10.8226 16.9563 10.8226C17.7043 10.8226 18.3258 10.2013 18.3258 9.45309C18.3258 8.70509 17.7045 8.08354 16.9563 8.08354Z" fill="#3A120A" stroke="#3A120A" stroke-width="0.1"/>
<path d="M13 0.45C6.07705 0.45 0.45 6.07705 0.45 13C0.45 19.923 6.07705 25.55 13 25.55C19.923 25.55 25.55 19.923 25.55 13C25.55 6.07705 19.923 0.45 13 0.45ZM13 2.07783C19.0468 2.07783 23.9222 6.95336 23.9222 13.0001C23.9222 19.0467 19.0467 23.9223 13 23.9223C6.95331 23.9223 2.07778 19.0467 2.07778 13.0001C2.07778 6.95336 6.95331 2.07783 13 2.07783Z" fill="#3A120A" stroke="#3A120A" stroke-width="0.1"/>
<path d="M19.0058 17.0426H19.0062L19.021 17.02C19.2432 16.6815 19.2369 16.3451 19.0919 16.095C18.9479 15.8466 18.6699 15.689 18.3609 15.7014L18.3629 15.7514L18.3609 15.7014C18.0739 15.7129 17.8298 15.9048 17.6789 16.1318C16.6283 17.7111 14.8128 18.5053 12.9984 18.5053C11.1838 18.5053 9.36825 17.7113 8.31785 16.1318L8.31785 16.1317C8.167 15.905 7.92284 15.7129 7.63591 15.7014L7.6359 15.7014C7.32684 15.6891 7.04885 15.8466 6.90484 16.095C6.75986 16.3451 6.75363 16.6815 6.97573 17.02C8.34507 19.107 10.6813 20.1329 12.9982 20.1329C15.3072 20.1329 17.6347 19.1144 19.0058 17.0426Z" fill="#3A120A" stroke="#3A120A" stroke-width="0.1"/>
</svg>
