<svg width="20" height="20" viewBox="0 0 20 20" fill="none" xmlns="http://www.w3.org/2000/svg">
<mask id="mask0_14_1634" style="mask-type:alpha" maskUnits="userSpaceOnUse" x="0" y="0" width="20" height="20">
<rect width="20" height="20" fill="#D9D9D9"/>
</mask>
<g mask="url(#mask0_14_1634)">
<path d="M10 19.9166C8.26393 19.9166 6.68393 19.5208 5.26004 18.7291C3.83671 17.9374 2.70143 16.9096 1.85421 15.6458V16.4583C1.85421 16.7638 1.74671 17.0244 1.53171 17.2399C1.31615 17.4549 1.0556 17.5624 0.750041 17.5624C0.444485 17.5624 0.18393 17.4549 -0.031626 17.2399C-0.246626 17.0244 -0.354126 16.7638 -0.354126 16.4583V12.8958C-0.354126 12.5902 -0.249959 12.3333 -0.041626 12.1249C0.166707 11.9166 0.423652 11.8124 0.729207 11.8124H4.29171C4.59726 11.8124 4.85782 11.9199 5.07337 12.1349C5.28837 12.3505 5.39587 12.611 5.39587 12.9166C5.39587 13.2221 5.28837 13.4827 5.07337 13.6983C4.85782 13.9133 4.59726 14.0208 4.29171 14.0208H3.37504C4.0556 15.1041 4.97226 15.9894 6.12504 16.6766C7.27782 17.3644 8.56948 17.7083 10 17.7083C11.9445 17.7083 13.6425 17.0727 15.0942 15.8016C16.5453 14.531 17.3959 12.9305 17.6459 10.9999C17.6875 10.7221 17.8092 10.486 18.0109 10.2916C18.212 10.0971 18.4514 9.99992 18.7292 9.99992C19.0625 9.99992 19.3439 10.1144 19.5734 10.3433C19.8023 10.5727 19.8959 10.8471 19.8542 11.1666C19.7153 12.4166 19.3578 13.5727 18.7817 14.6349C18.205 15.6977 17.4759 16.6216 16.5942 17.4066C15.712 18.191 14.7084 18.8055 13.5834 19.2499C12.4584 19.6944 11.2639 19.9166 10 19.9166ZM1.27087 9.99992C0.937541 9.99992 0.65643 9.8852 0.427541 9.65575C0.198096 9.42686 0.104207 9.1527 0.145874 8.83325C0.298652 7.59714 0.65643 6.4477 1.21921 5.38492C1.78143 4.3227 2.50337 3.39909 3.38504 2.61409C4.26726 1.82964 5.27449 1.21159 6.40671 0.759919C7.53837 0.308808 8.73615 0.083252 10 0.083252C11.6528 0.083252 13.212 0.46853 14.6775 1.23909C16.1425 2.0102 17.2987 3.04853 18.1459 4.35409V3.54159C18.1459 3.23603 18.2537 2.97547 18.4692 2.75992C18.6842 2.54492 18.9445 2.43742 19.25 2.43742C19.5556 2.43742 19.8162 2.54492 20.0317 2.75992C20.2467 2.97547 20.3542 3.23603 20.3542 3.54159V7.10408C20.3542 7.40964 20.25 7.66658 20.0417 7.87492C19.8334 8.08325 19.5764 8.18742 19.2709 8.18742H15.7084C15.4028 8.18742 15.1425 8.07992 14.9275 7.86492C14.712 7.64936 14.6042 7.38881 14.6042 7.08325C14.6042 6.7777 14.712 6.51714 14.9275 6.30159C15.1425 6.08659 15.4028 5.97909 15.7084 5.97909H16.625C15.8889 4.85409 14.9412 3.95825 13.7817 3.29159C12.6217 2.62492 11.3612 2.29159 10 2.29159C8.0556 2.29159 6.35782 2.92686 4.90671 4.19742C3.45504 5.46853 2.60421 7.06936 2.35421 8.99992C2.31254 9.2777 2.19115 9.51381 1.99004 9.70825C1.78837 9.9027 1.54865 9.99992 1.27087 9.99992ZM9.97921 16.1249C9.71532 16.1249 9.4931 16.0346 9.31254 15.8541C9.13199 15.6735 9.04171 15.4513 9.04171 15.1874V14.9999C8.50004 14.8749 8.04171 14.6596 7.66671 14.3541C7.29171 14.0485 6.98615 13.6596 6.75004 13.1874C6.62504 12.9235 6.6181 12.6666 6.72921 12.4166C6.84032 12.1666 7.03476 11.986 7.31254 11.8749C7.54865 11.7916 7.77449 11.8019 7.99004 11.9058C8.20504 12.0102 8.38893 12.1874 8.54171 12.4374C8.72226 12.743 8.95143 12.9688 9.22921 13.1149C9.50698 13.2605 9.8056 13.3333 10.125 13.3333C10.5695 13.3333 10.9306 13.2394 11.2084 13.0516C11.4862 12.8644 11.625 12.5694 11.625 12.1666C11.625 11.7916 11.4412 11.486 11.0734 11.2499C10.705 11.0138 10.0834 10.736 9.20837 10.4166C8.41671 10.1388 7.8231 9.7777 7.42754 9.33325C7.03143 8.88881 6.83337 8.31936 6.83337 7.62492C6.83337 6.99992 7.03476 6.44075 7.43754 5.94742C7.84032 5.45464 8.38893 5.12492 9.08337 4.95825V4.81242C9.08337 4.54853 9.17365 4.32631 9.35421 4.14575C9.53476 3.9652 9.75698 3.87492 10.0209 3.87492C10.2848 3.87492 10.507 3.9652 10.6875 4.14575C10.8681 4.32631 10.9584 4.54853 10.9584 4.81242V4.95825C11.3612 4.98603 11.7292 5.11436 12.0625 5.34325C12.3959 5.5727 12.6737 5.86103 12.8959 6.20825C13.0348 6.43047 13.0523 6.67353 12.9484 6.93742C12.8439 7.20131 12.6528 7.38881 12.375 7.49992C12.1806 7.58325 11.9792 7.58659 11.7709 7.50992C11.5625 7.43381 11.3542 7.28464 11.1459 7.06242C11.0209 6.92353 10.8681 6.81575 10.6875 6.73909C10.507 6.66297 10.2917 6.62492 10.0417 6.62492C9.59726 6.62492 9.26393 6.71159 9.04171 6.88492C8.81949 7.05881 8.70837 7.30547 8.70837 7.62492C8.70837 7.95825 8.8856 8.22214 9.24004 8.41659C9.59393 8.61103 10.1806 8.84714 11 9.12492C12.0278 9.48603 12.7014 9.93047 13.0209 10.4583C13.3403 10.986 13.5 11.5555 13.5 12.1666C13.5 13.0277 13.2639 13.6735 12.7917 14.1041C12.3195 14.5346 11.6945 14.8471 10.9167 15.0416V15.1874C10.9167 15.4513 10.8264 15.6735 10.6459 15.8541C10.4653 16.0346 10.2431 16.1249 9.97921 16.1249Z" fill="#FCDE2F"/>
</g>
</svg>
