<svg width="122.88" height="116.6" xmlns="http://www.w3.org/2000/svg" data-name="Layer 1">
 <title>faqs</title>

 <g>
  <title>Layer 1</title>
  <path fill="white" id="svg_1" d="m17.72,45.43l0,-24.31l16.8,0l0,5.32l-10.31,0l0,4.18l9.28,0l0,5.31l-9.28,0l0,9.5l-6.49,0zm-1.05,-45.43l66.5,0a16.7,16.7 0 0 1 16.67,16.67l0,34.69a16.7,16.7 0 0 1 -16.67,16.64l-37.71,0l-25.3,21.78a2.81,2.81 0 0 1 -4.62,-2.31l1.35,-19.47l-0.22,0a16.7,16.7 0 0 1 -16.67,-16.64l0,-34.69a16.7,16.7 0 0 1 16.67,-16.67zm93,24.65a16.42,16.42 0 0 1 13.26,16l0,37.2a16.37,16.37 0 0 1 -16.33,16.32l-0.6,0l1.34,19.83l0,0a2.46,2.46 0 0 1 -4,2l-25.45,-22.47l-39.63,0l16.48,-16.76l41.08,0a13.9,13.9 0 0 0 13.85,-13.86l0,-37.16c0,-0.37 0,-0.74 0,-1.1zm-26.46,-19l-66.54,0a11.1,11.1 0 0 0 -11,11.05l0,34.66a11.1,11.1 0 0 0 11.05,11l3.42,0a2.8,2.8 0 0 1 2.6,3l-1.14,15.81l20.87,-18a2.79,2.79 0 0 1 2,-0.81l38.69,0a11.1,11.1 0 0 0 11,-11l0,-34.69a11.1,11.1 0 0 0 -11,-11l0.05,-0.02zm-43,39.81l-7,0l7.79,-24.34l8.87,0l7.88,24.31l-7,0l-5.22,-17.61l-0.19,0l-5.22,17.61l0.09,0.03zm-1.31,-9.59l13.1,0l0,4.94l-13.19,0l0,-4.97l0.09,0.03zm29.35,0.57l5,0l1.75,2.3l3.08,3.55l4,5l-5.71,0l-2.84,-3.37l-1.92,-2.81l-3.45,-4.65l0.09,-0.02zm13.91,-3.13a13.84,13.84 0 0 1 -1.56,6.84a10.36,10.36 0 0 1 -4.19,4.21a12.78,12.78 0 0 1 -11.77,0a10.45,10.45 0 0 1 -4.18,-4.23a13.83,13.83 0 0 1 -1.54,-6.81a13.89,13.89 0 0 1 1.54,-6.84a10.42,10.42 0 0 1 4.18,-4.22a12.82,12.82 0 0 1 11.77,0a10.45,10.45 0 0 1 4.19,4.22a13.78,13.78 0 0 1 1.56,6.84l0,-0.01zm-6.68,0a10.35,10.35 0 0 0 -0.57,-3.68a4.75,4.75 0 0 0 -1.66,-2.29a5.17,5.17 0 0 0 -5.43,0a4.83,4.83 0 0 0 -1.67,2.29a10.59,10.59 0 0 0 -0.56,3.68a10.63,10.63 0 0 0 0.47,3.69a4.8,4.8 0 0 0 1.67,2.28a5.12,5.12 0 0 0 5.43,0a4.72,4.72 0 0 0 1.66,-2.28a10.38,10.38 0 0 0 0.57,-3.68l0.09,-0.01z"/>
 </g>
</svg>