<svg width="19" height="15" viewBox="0 0 19 15" fill="none" xmlns="http://www.w3.org/2000/svg">
<path d="M6.66667 14.9377C4.97222 14.9377 3.53111 14.3441 2.34333 13.1568C1.15611 11.9691 0.5625 10.5279 0.5625 8.8335C0.5625 7.36127 1.02083 6.0385 1.9375 4.86516C2.85417 3.69127 3.95833 2.94461 5.25 2.62516L5.0625 2.43766C4.85417 2.22933 4.74667 1.97572 4.74 1.67683C4.73278 1.3785 4.84028 1.11822 5.0625 0.895996C5.27083 0.687663 5.52778 0.583496 5.83333 0.583496C6.13889 0.583496 6.39583 0.687663 6.60417 0.895996L8.79167 3.0835C8.90278 3.19461 8.98278 3.31266 9.03167 3.43766C9.08 3.56266 9.10417 3.69461 9.10417 3.8335C9.10417 3.97238 9.08 4.10766 9.03167 4.23933C8.98278 4.37155 8.90278 4.49322 8.79167 4.60433L6.625 6.771C6.41667 6.97933 6.16306 7.08683 5.86417 7.0935C5.56583 7.10072 5.29861 6.99322 5.0625 6.771C4.84028 6.56266 4.72917 6.30572 4.72917 6.00016C4.72917 5.69461 4.84028 5.43072 5.0625 5.2085L5.27083 5.021C4.54861 5.32655 3.95139 5.83016 3.47917 6.53183C3.00694 7.23294 2.77083 8.00016 2.77083 8.8335C2.77083 9.91683 3.14944 10.8368 3.90667 11.5935C4.66333 12.3507 5.58333 12.7293 6.66667 12.7293H8.33333C8.63889 12.7293 8.89944 12.8368 9.115 13.0518C9.33 13.2674 9.4375 13.5279 9.4375 13.8335C9.4375 14.1391 9.33 14.3996 9.115 14.6152C8.89944 14.8302 8.63889 14.9377 8.33333 14.9377H6.66667ZM12.7708 14.9377C12.1458 14.9377 11.6217 14.7257 11.1983 14.3018C10.7744 13.8785 10.5625 13.3543 10.5625 12.7293V10.771C10.5625 10.146 10.7744 9.62183 11.1983 9.19849C11.6217 8.77461 12.1458 8.56266 12.7708 8.56266H16.3958C17.0208 8.56266 17.545 8.77461 17.9683 9.19849C18.3922 9.62183 18.6042 10.146 18.6042 10.771V12.7293C18.6042 13.3543 18.3922 13.8785 17.9683 14.3018C17.545 14.7257 17.0208 14.9377 16.3958 14.9377H12.7708ZM12.7708 12.7293H16.3958V10.771H12.7708V12.7293ZM12.7708 7.43766C12.1458 7.43766 11.6217 7.22572 11.1983 6.80183C10.7744 6.3785 10.5625 5.85433 10.5625 5.22933V3.271C10.5625 2.646 10.7744 2.12155 11.1983 1.69766C11.6217 1.27433 12.1458 1.06266 12.7708 1.06266H16.3958C17.0208 1.06266 17.545 1.27433 17.9683 1.69766C18.3922 2.12155 18.6042 2.646 18.6042 3.271V5.22933C18.6042 5.85433 18.3922 6.3785 17.9683 6.80183C17.545 7.22572 17.0208 7.43766 16.3958 7.43766H12.7708Z" fill="#FCDE2F"/>
</svg>
