<svg width="19" height="15" viewBox="0 0 19 15" fill="none" xmlns="http://www.w3.org/2000/svg">
<path d="M5.0625 14.1042C4.85417 13.8958 4.75 13.6389 4.75 13.3333C4.75 13.0278 4.85417 12.7708 5.0625 12.5625L5.25 12.375C3.95833 12.0556 2.85417 11.3089 1.9375 10.135C1.02083 8.96167 0.5625 7.63889 0.5625 6.16667C0.5625 4.47222 1.15611 3.03111 2.34333 1.84333C3.53111 0.656111 4.97222 0.0625 6.66667 0.0625H8.33333C8.63889 0.0625 8.89944 0.17 9.115 0.385C9.33 0.600555 9.4375 0.861111 9.4375 1.16667C9.4375 1.47222 9.33 1.73278 9.115 1.94833C8.89944 2.16333 8.63889 2.27083 8.33333 2.27083H6.66667C5.58333 2.27083 4.66333 2.64917 3.90667 3.40583C3.14944 4.16306 2.77083 5.08333 2.77083 6.16667C2.77083 7 3.00694 7.77083 3.47917 8.47917C3.95139 9.1875 4.54861 9.69444 5.27083 10L5.0625 9.79167C4.84028 9.56944 4.72583 9.3125 4.71917 9.02083C4.71194 8.72917 4.81944 8.47222 5.04167 8.25C5.26389 8.02778 5.52778 7.91306 5.83333 7.90583C6.13889 7.89917 6.40278 8.00695 6.625 8.22917L8.79167 10.3958C8.90278 10.5069 8.98278 10.6283 9.03167 10.76C9.08 10.8922 9.10417 11.0278 9.10417 11.1667C9.10417 11.3056 9.08 11.4411 9.03167 11.5733C8.98278 11.705 8.90278 11.8264 8.79167 11.9375L6.60417 14.1042C6.39583 14.3125 6.1425 14.4203 5.84417 14.4275C5.54528 14.4342 5.28472 14.3264 5.0625 14.1042ZM12.7708 6.4375C12.1458 6.4375 11.6217 6.22556 11.1983 5.80167C10.7744 5.37833 10.5625 4.85417 10.5625 4.22917V2.27083C10.5625 1.64583 10.7744 1.12139 11.1983 0.6975C11.6217 0.274167 12.1458 0.0625 12.7708 0.0625H16.3958C17.0208 0.0625 17.545 0.274167 17.9683 0.6975C18.3922 1.12139 18.6042 1.64583 18.6042 2.27083V4.22917C18.6042 4.85417 18.3922 5.37833 17.9683 5.80167C17.545 6.22556 17.0208 6.4375 16.3958 6.4375H12.7708ZM12.7708 4.22917H16.3958V2.27083H12.7708V4.22917ZM12.7708 13.9375C12.1458 13.9375 11.6217 13.7256 11.1983 13.3017C10.7744 12.8783 10.5625 12.3542 10.5625 11.7292V9.77083C10.5625 9.14583 10.7744 8.62167 11.1983 8.19833C11.6217 7.77444 12.1458 7.5625 12.7708 7.5625H16.3958C17.0208 7.5625 17.545 7.77444 17.9683 8.19833C18.3922 8.62167 18.6042 9.14583 18.6042 9.77083V11.7292C18.6042 12.3542 18.3922 12.8783 17.9683 13.3017C17.545 13.7256 17.0208 13.9375 16.3958 13.9375H12.7708Z" fill="#FCDE2F"/>
</svg>
