<svg width="19" height="15" viewBox="0 0 19 15" fill="none" xmlns="http://www.w3.org/2000/svg">
<path d="M5.06249 14.1042C4.85416 13.8958 4.74999 13.6389 4.74999 13.3333C4.74999 13.0278 4.85416 12.7708 5.06249 12.5625L5.24999 12.375C3.95833 12.0556 2.85416 11.3089 1.93749 10.135C1.02083 8.96167 0.562492 7.63889 0.562492 6.16667C0.562492 4.47222 1.1561 3.03111 2.34333 1.84333C3.5311 0.656111 4.97221 0.0625 6.66666 0.0625H8.33333C8.63888 0.0625 8.89944 0.17 9.11499 0.385C9.32999 0.600555 9.43749 0.861111 9.43749 1.16667C9.43749 1.47222 9.32999 1.73278 9.11499 1.94833C8.89944 2.16333 8.63888 2.27083 8.33333 2.27083H6.66666C5.58333 2.27083 4.66333 2.64917 3.90666 3.40583C3.14944 4.16306 2.77083 5.08333 2.77083 6.16667C2.77083 7 3.00694 7.77083 3.47916 8.47917C3.95138 9.1875 4.5486 9.69444 5.27083 10L5.06249 9.79167C4.84027 9.56944 4.72583 9.3125 4.71916 9.02083C4.71194 8.72917 4.81944 8.47222 5.04166 8.25C5.26388 8.02778 5.52777 7.91306 5.83333 7.90583C6.13888 7.89917 6.40277 8.00695 6.62499 8.22917L8.79166 10.3958C8.90277 10.5069 8.98277 10.6283 9.03166 10.76C9.07999 10.8922 9.10416 11.0278 9.10416 11.1667C9.10416 11.3056 9.07999 11.4411 9.03166 11.5733C8.98277 11.705 8.90277 11.8264 8.79166 11.9375L6.60416 14.1042C6.39583 14.3125 6.14249 14.4203 5.84416 14.4275C5.54527 14.4342 5.28471 14.3264 5.06249 14.1042ZM12.7708 6.4375C12.1458 6.4375 11.6217 6.22556 11.1983 5.80167C10.7744 5.37833 10.5625 4.85417 10.5625 4.22917V2.27083C10.5625 1.64583 10.7744 1.12139 11.1983 0.6975C11.6217 0.274167 12.1458 0.0625 12.7708 0.0625H16.3958C17.0208 0.0625 17.545 0.274167 17.9683 0.6975C18.3922 1.12139 18.6042 1.64583 18.6042 2.27083V4.22917C18.6042 4.85417 18.3922 5.37833 17.9683 5.80167C17.545 6.22556 17.0208 6.4375 16.3958 6.4375H12.7708ZM12.7708 4.22917H16.3958V2.27083H12.7708V4.22917ZM12.7708 13.9375C12.1458 13.9375 11.6217 13.7256 11.1983 13.3017C10.7744 12.8783 10.5625 12.3542 10.5625 11.7292V9.77083C10.5625 9.14583 10.7744 8.62167 11.1983 8.19833C11.6217 7.77444 12.1458 7.5625 12.7708 7.5625H16.3958C17.0208 7.5625 17.545 7.77444 17.9683 8.19833C18.3922 8.62167 18.6042 9.14583 18.6042 9.77083V11.7292C18.6042 12.3542 18.3922 12.8783 17.9683 13.3017C17.545 13.7256 17.0208 13.9375 16.3958 13.9375H12.7708Z" fill="#717171"/>
</svg>
