<svg width="20" height="17" viewBox="0 0 20 17" fill="none" xmlns="http://www.w3.org/2000/svg">
<g clip-path="url(#clip0_5_18)">
<path d="M7.82369 15.9793V10.8757H12.1715V15.9793C12.1715 16.5407 12.6606 17 13.2584 17H16.5193C17.1171 17 17.6062 16.5407 17.6062 15.9793V8.83428H19.454C19.954 8.83428 20.1932 8.25248 19.8127 7.94626L10.7258 0.260282C10.3128 -0.0867607 9.68237 -0.0867607 9.26933 0.260282L0.182446 7.94626C-0.187116 8.25248 0.0411432 8.83428 0.541139 8.83428H2.38895V15.9793C2.38895 16.5407 2.87808 17 3.4759 17H6.73674C7.33456 17 7.82369 16.5407 7.82369 15.9793Z" fill="#717171"/>
</g>
<defs>
<clipPath id="clip0_5_18">
<rect width="20" height="17" fill="white"/>
</clipPath>
</defs>
</svg>
