<svg width="20" height="20" viewBox="0 0 20 20" fill="none" xmlns="http://www.w3.org/2000/svg">
<path d="M12.7273 10.7692C12.7273 11.2256 12.5673 11.6718 12.2676 12.0513C11.968 12.4308 11.542 12.7266 11.0437 12.9013C10.5453 13.0759 9.99697 13.1216 9.46794 13.0326C8.9389 12.9435 8.45294 12.7238 8.07153 12.401C7.69011 12.0783 7.43036 11.6671 7.32513 11.2194C7.2199 10.7718 7.27391 10.3078 7.48033 9.88612C7.68675 9.46444 8.03631 9.10403 8.48481 8.85046C8.93331 8.59688 9.4606 8.46154 10 8.46154C10.7224 8.46407 11.4144 8.70801 11.9252 9.14024C12.436 9.57247 12.7243 10.158 12.7273 10.7692ZM20 1.53846V18.4615C20 18.8696 19.8084 19.2609 19.4675 19.5494C19.1265 19.8379 18.664 20 18.1818 20H1.81818C1.33597 20 0.873508 19.8379 0.532533 19.5494C0.191558 19.2609 0 18.8696 0 18.4615V1.53846C0 1.13044 0.191558 0.739122 0.532533 0.450605C0.873508 0.162087 1.33597 0 1.81818 0H18.1818C18.664 0 19.1265 0.162087 19.4675 0.450605C19.8084 0.739122 20 1.13044 20 1.53846ZM5.45455 3.07692C5.45455 3.28094 5.55032 3.47659 5.72081 3.62085C5.8913 3.76511 6.12253 3.84615 6.36364 3.84615H13.6364C13.8775 3.84615 14.1087 3.76511 14.2792 3.62085C14.4497 3.47659 14.5455 3.28094 14.5455 3.07692C14.5455 2.87291 14.4497 2.67725 14.2792 2.53299C14.1087 2.38874 13.8775 2.30769 13.6364 2.30769H6.36364C6.12253 2.30769 5.8913 2.38874 5.72081 2.53299C5.55032 2.67725 5.45455 2.87291 5.45455 3.07692ZM16.1818 15.6923C15.3773 14.7785 14.3037 14.0591 13.0682 13.6058C13.7442 13.0825 14.2175 12.3985 14.4261 11.6436C14.6347 10.8887 14.5688 10.0981 14.2371 9.37545C13.9053 8.65279 13.3232 8.03183 12.5671 7.59398C11.811 7.15614 10.9162 6.92185 10 6.92185C9.08379 6.92185 8.18896 7.15614 7.43285 7.59398C6.67675 8.03183 6.09467 8.65279 5.76294 9.37545C5.43121 10.0981 5.36532 10.8887 5.57391 11.6436C5.78249 12.3985 6.25582 13.0825 6.93182 13.6058C5.69627 14.0591 4.62271 14.7785 3.81818 15.6923C3.67352 15.8555 3.6114 16.0607 3.6455 16.2626C3.6796 16.4646 3.80712 16.6468 4 16.7692C4.15615 16.871 4.34835 16.9252 4.54545 16.9231C4.68659 16.9231 4.82578 16.8953 4.95201 16.8419C5.07824 16.7885 5.18805 16.7109 5.27273 16.6154C5.82314 15.9944 6.53687 15.4904 7.35737 15.1432C8.17788 14.7961 9.08264 14.6154 10 14.6154C10.9174 14.6154 11.8221 14.7961 12.6426 15.1432C13.4631 15.4904 14.1769 15.9944 14.7273 16.6154C14.8737 16.7765 15.0888 16.8827 15.3266 16.9115C15.5644 16.9402 15.8061 16.8892 16 16.7692C16.0955 16.7086 16.176 16.6327 16.2368 16.5458C16.2976 16.4588 16.3376 16.3626 16.3545 16.2626C16.3714 16.1626 16.3648 16.0608 16.3352 15.9629C16.3056 15.8651 16.2534 15.7731 16.1818 15.6923Z" fill="#717171"/>
</svg>
