<svg width="26" height="26" viewBox="0 0 26 26" fill="none" xmlns="http://www.w3.org/2000/svg">
<path d="M14.9882 11.9491C14.8651 11.9493 14.7431 11.9251 14.6294 11.878C14.5156 11.8308 14.4123 11.7616 14.3254 11.6744C12.8634 10.2123 10.4845 10.2119 9.02199 11.6744C8.93551 11.7639 8.83206 11.8353 8.71768 11.8845C8.6033 11.9336 8.48028 11.9595 8.3558 11.9605C8.23132 11.9616 8.10787 11.9379 7.99266 11.8908C7.87744 11.8436 7.77277 11.774 7.68474 11.686C7.59672 11.598 7.52711 11.4933 7.47997 11.3781C7.43283 11.2629 7.40911 11.1394 7.41019 11.0149C7.41127 10.8905 7.43714 10.7674 7.48627 10.6531C7.5354 10.5387 7.60682 10.4352 7.69636 10.3487C9.88964 8.155 13.4582 8.15547 15.6511 10.3487C15.7821 10.4799 15.8714 10.6469 15.9075 10.8287C15.9437 11.0106 15.9251 11.199 15.8542 11.3703C15.7832 11.5416 15.6631 11.688 15.509 11.791C15.3548 11.894 15.1736 11.949 14.9882 11.9491ZM14.3254 17.297C12.885 17.297 11.4445 16.7486 10.3481 15.6522C10.2585 15.5657 10.1871 15.4623 10.138 15.3479C10.0889 15.2335 10.063 15.1105 10.0619 14.986C10.0608 14.8615 10.0845 14.7381 10.1317 14.6229C10.1788 14.5076 10.2484 14.403 10.3365 14.3149C10.4245 14.2269 10.5292 14.1573 10.6444 14.1102C10.7596 14.063 10.883 14.0393 11.0075 14.0404C11.132 14.0415 11.255 14.0673 11.3694 14.1165C11.4838 14.1656 11.5872 14.237 11.6737 14.3266C13.1357 15.7886 15.5146 15.7891 16.9771 14.3266C17.0636 14.237 17.1671 14.1656 17.2815 14.1165C17.3958 14.0673 17.5189 14.0415 17.6433 14.0404C17.7678 14.0393 17.8913 14.063 18.0065 14.1102C18.1217 14.1573 18.2264 14.2269 18.3144 14.3149C18.4024 14.403 18.472 14.5076 18.5192 14.6229C18.5663 14.7381 18.59 14.8615 18.5889 14.986C18.5879 15.1105 18.562 15.2335 18.5129 15.3479C18.4637 15.4623 18.3923 15.5657 18.3028 15.6522C17.7808 16.1747 17.1607 16.589 16.4781 16.8713C15.7956 17.1536 15.064 17.2982 14.3254 17.297Z" fill="#3A120A"/>
<path d="M17.64 15.9264C17.4546 15.9264 17.2734 15.8714 17.1193 15.7684C16.9652 15.6654 16.845 15.519 16.7741 15.3477C16.7031 15.1764 16.6846 14.9879 16.7207 14.8061C16.7569 14.6243 16.8462 14.4572 16.9772 14.3261L22.2141 9.08925C22.3006 8.99971 22.404 8.92829 22.5184 8.87916C22.6328 8.83002 22.7558 8.80416 22.8803 8.80308C23.0048 8.802 23.1282 8.82572 23.2434 8.87286C23.3586 8.92 23.4633 8.98961 23.5513 9.07763C23.6394 9.16566 23.709 9.27033 23.7561 9.38554C23.8033 9.50076 23.827 9.62421 23.8259 9.74869C23.8248 9.87317 23.799 9.99619 23.7498 10.1106C23.7007 10.2249 23.6293 10.3284 23.5397 10.4149L18.3028 15.6518C18.216 15.739 18.1127 15.8082 17.9989 15.8554C17.8851 15.9025 17.7632 15.9267 17.64 15.9264ZM9.75191 23.8146C9.56652 23.8145 9.3853 23.7595 9.23117 23.6565C9.07703 23.5535 8.9569 23.4071 8.88596 23.2358C8.81502 23.0645 8.79646 22.8761 8.83261 22.6942C8.86877 22.5124 8.95803 22.3454 9.0891 22.2143L12.0164 19.2869C12.1029 19.1974 12.2064 19.1259 12.3207 19.0768C12.4351 19.0277 12.5581 19.0018 12.6826 19.0007C12.8071 18.9997 12.9306 19.0234 13.0458 19.0705C13.161 19.1177 13.2657 19.1873 13.3537 19.2753C13.4417 19.3633 13.5113 19.468 13.5585 19.5832C13.6056 19.6984 13.6293 19.8219 13.6282 19.9463C13.6272 20.0708 13.6013 20.1938 13.5522 20.3082C13.503 20.4226 13.4316 20.5261 13.3421 20.6125L10.4147 23.5399C10.3278 23.6271 10.2245 23.6963 10.1108 23.7435C9.99702 23.7906 9.87505 23.8148 9.75191 23.8146ZM3.12285 17.1855C2.93746 17.1855 2.75624 17.1305 2.6021 17.0274C2.44797 16.9244 2.32784 16.778 2.2569 16.6067C2.18596 16.4355 2.16739 16.247 2.20355 16.0652C2.23971 15.8833 2.32896 15.7163 2.46003 15.5852L7.69691 10.3488C7.78339 10.2592 7.88684 10.1878 8.00122 10.1387C8.1156 10.0896 8.23862 10.0637 8.3631 10.0626C8.48758 10.0615 8.61103 10.0853 8.72624 10.1324C8.84146 10.1795 8.94613 10.2491 9.03415 10.3372C9.12218 10.4252 9.19179 10.5299 9.23893 10.6451C9.28607 10.7603 9.30979 10.8837 9.30871 11.0082C9.30763 11.1327 9.28176 11.2557 9.23263 11.3701C9.1835 11.4845 9.11208 11.5879 9.02253 11.6744L3.78566 16.9108C3.60238 17.0936 3.36238 17.1855 3.12285 17.1855ZM13.3205 6.98831C13.1351 6.98827 12.9539 6.93327 12.7998 6.83025C12.6456 6.72724 12.5255 6.58083 12.4546 6.40955C12.3836 6.23827 12.365 6.0498 12.4012 5.86797C12.4374 5.68614 12.5266 5.51911 12.6577 5.388L15.585 2.46019C15.7609 2.28434 15.9994 2.18555 16.2481 2.18555C16.4968 2.18555 16.7353 2.28434 16.9111 2.46019C17.087 2.63604 17.1858 2.87455 17.1858 3.12324C17.1858 3.37193 17.087 3.61043 16.9111 3.78628L13.9838 6.7141C13.8077 6.88974 13.5692 6.98836 13.3205 6.98831Z" fill="#3A120A"/>
<path d="M6.4373 25.1571C4.98746 25.1571 3.53762 24.618 2.45996 23.5399C0.303711 21.3836 0.303711 17.741 2.45996 15.5847C2.54644 15.4952 2.64989 15.4238 2.76427 15.3746C2.87865 15.3255 3.00167 15.2996 3.12615 15.2986C3.25063 15.2975 3.37408 15.3212 3.48929 15.3683C3.60451 15.4155 3.70918 15.4851 3.79721 15.5731C3.88523 15.6611 3.95484 15.7658 4.00198 15.881C4.04912 15.9962 4.07284 16.1197 4.07176 16.2442C4.07068 16.3687 4.04481 16.4917 3.99568 16.6061C3.94655 16.7204 3.87513 16.8239 3.78559 16.9104C2.3484 18.3475 2.3484 20.7766 3.78559 22.2138C5.22277 23.651 7.65184 23.651 9.08902 22.2138C9.1755 22.1243 9.27895 22.0528 9.39333 22.0037C9.50771 21.9546 9.63073 21.9287 9.75521 21.9276C9.87969 21.9265 10.0031 21.9503 10.1184 21.9974C10.2336 22.0445 10.3382 22.1142 10.4263 22.2022C10.5143 22.2902 10.5839 22.3949 10.631 22.5101C10.6782 22.6253 10.7019 22.7488 10.7008 22.8732C10.6997 22.9977 10.6739 23.1207 10.6247 23.2351C10.5756 23.3495 10.5042 23.4529 10.4146 23.5394C9.33699 24.618 7.88715 25.1571 6.4373 25.1571ZM22.8768 10.6896C22.6914 10.6895 22.5102 10.6345 22.3561 10.5315C22.202 10.4285 22.0818 10.2821 22.0109 10.1108C21.9399 9.93954 21.9214 9.75107 21.9575 9.56924C21.9937 9.38741 22.083 9.22038 22.214 9.08927C23.6512 7.65208 23.6512 5.22302 22.214 3.78583C20.7768 2.34864 18.3478 2.34864 16.9106 3.78583C16.8241 3.87537 16.7207 3.94679 16.6063 3.99592C16.4919 4.04506 16.3689 4.07092 16.2444 4.072C16.1199 4.07308 15.9965 4.04936 15.8813 4.00223C15.766 3.95509 15.6614 3.88547 15.5733 3.79745C15.4853 3.70943 15.4157 3.60475 15.3686 3.48954C15.3214 3.37432 15.2977 3.25087 15.2988 3.12639C15.2999 3.00191 15.3257 2.87889 15.3749 2.76451C15.424 2.65013 15.4954 2.54669 15.585 2.4602C17.7412 0.303955 21.3839 0.303955 23.5401 2.4602C25.6964 4.61645 25.6964 8.25911 23.5401 10.4154C23.3568 10.5982 23.1168 10.6896 22.8768 10.6896Z" fill="#3A120A"/>
</svg>
