<svg width="25" height="23" viewBox="0 0 25 23" fill="none" xmlns="http://www.w3.org/2000/svg">
<path d="M5.54375 17.75V17.675H5.46875H3.125C1.87423 17.675 0.85625 16.657 0.85625 15.4062V2.90625C0.85625 1.65548 1.87423 0.6375 3.125 0.6375H21.875C23.1258 0.6375 24.1437 1.65548 24.1437 2.90625V15.4062C24.1437 16.657 23.1258 17.675 21.875 17.675H12.3836H12.3573L12.3367 17.6914L6.69143 22.2078L6.6914 22.2079C6.56619 22.3081 6.4105 22.3627 6.25009 22.3625C6.0628 22.3623 5.88326 22.2878 5.75083 22.1554C5.61841 22.023 5.54394 21.8434 5.54375 21.6562V17.75ZM6.95625 20.0312V20.1873L7.07811 20.0898L11.6679 16.4172C11.6679 16.4172 11.6679 16.4172 11.668 16.4172C11.7932 16.317 11.9489 16.2624 12.1093 16.2625H12.1094H21.875C22.3477 16.2625 22.7313 15.8781 22.7313 15.4062V2.90625C22.7313 2.43441 22.3477 2.05 21.875 2.05H3.125C2.65228 2.05 2.26875 2.43441 2.26875 2.90625V15.4062C2.26875 15.8781 2.65228 16.2625 3.125 16.2625H6.25C6.43731 16.2625 6.61695 16.3369 6.74939 16.4694C6.88184 16.6018 6.95625 16.7814 6.95625 16.9688V20.0312Z" fill="#3A120A" stroke="#F6D1B9" stroke-width="0.15"/>
<path d="M18.75 8.3H6.25C6.06269 8.3 5.88305 8.22559 5.75061 8.09314C5.61816 7.9607 5.54375 7.78106 5.54375 7.59375C5.54375 7.40644 5.61816 7.2268 5.75061 7.09436C5.88305 6.96191 6.06269 6.8875 6.25 6.8875H18.75C18.9373 6.8875 19.1169 6.96191 19.2494 7.09436C19.3818 7.2268 19.4563 7.40644 19.4563 7.59375C19.4563 7.78106 19.3818 7.9607 19.2494 8.09314C19.1169 8.22559 18.9373 8.3 18.75 8.3ZM12.5 11.425H6.25C6.06269 11.425 5.88305 11.3506 5.75061 11.2181C5.61816 11.0857 5.54375 10.9061 5.54375 10.7188C5.54375 10.5314 5.61816 10.3518 5.75061 10.2194C5.88305 10.0869 6.06269 10.0125 6.25 10.0125H12.5C12.6873 10.0125 12.8669 10.0869 12.9994 10.2194C13.1318 10.3518 13.2063 10.5314 13.2063 10.7188C13.2063 10.9061 13.1318 11.0857 12.9994 11.2181C12.8669 11.3506 12.6873 11.425 12.5 11.425Z" fill="#3A120A" stroke="#F6D1B9" stroke-width="0.15"/>
</svg>
