<svg width="33" height="33" viewBox="0 0 33 33" fill="none" xmlns="http://www.w3.org/2000/svg">
<circle cx="16.5" cy="16.5" r="16.5" fill="#A1543D"/>
<path d="M21.9722 11.3687L22.3201 11.1H21.8805H11.1195H10.6799L11.0278 11.3687L16.4083 15.525L16.5 15.5958L16.5917 15.525L21.9722 11.3687ZM9.79167 12.225L9.55 12.0384V12.3438V20.875C9.55 21.1455 9.65433 21.4057 9.84137 21.5982C10.0285 21.7909 10.2834 21.9 10.55 21.9H22.45C22.7166 21.9 22.9715 21.7909 23.1586 21.5982C23.3457 21.4057 23.45 21.1455 23.45 20.875V12.3438V12.0384L23.2083 12.225L16.9183 17.0813C16.7972 17.1748 16.6504 17.225 16.5 17.225C16.3496 17.225 16.2028 17.1748 16.0817 17.0813L9.79167 12.225ZM10.55 9.65H22.45C23.0851 9.65 23.6951 9.90967 24.1455 10.3734C24.5961 10.8372 24.85 11.4672 24.85 12.125V20.875C24.85 21.5328 24.5961 22.1628 24.1455 22.6266C23.6951 23.0903 23.0851 23.35 22.45 23.35H10.55C9.91491 23.35 9.30491 23.0903 8.85447 22.6266C8.40388 22.1628 8.15 21.5328 8.15 20.875V12.125C8.15 11.4672 8.40388 10.8372 8.85447 10.3734C9.30491 9.90967 9.91491 9.65 10.55 9.65Z" fill="white" stroke="#A1543D" stroke-width="0.3"/>
</svg>
