<svg width="20" height="20" viewBox="0 0 20 20" fill="none" xmlns="http://www.w3.org/2000/svg">
<path d="M1.56805 16.6237C1.13412 16.6237 0.764505 16.5027 0.45918 16.2607C0.15306 16.0182 0 15.7249 0 15.3811C0 15.0371 0.15306 14.7442 0.45918 14.5022C0.764505 14.2597 1.13412 14.1384 1.56805 14.1384H2.39645V8.15946C2.39645 6.81512 2.89468 5.60752 3.89112 4.53647C4.88677 3.46604 6.19328 2.75108 7.81064 2.39156V1.73506C7.81064 1.25049 8.02287 0.840018 8.44733 0.503635C8.87099 0.167882 9.38854 0 9.99997 0C10.6115 0 11.129 0.167882 11.5526 0.503635C11.9771 0.840018 12.1894 1.25049 12.1894 1.73506V2.39156C13.8067 2.75108 15.1135 3.47012 16.11 4.54866C17.1057 5.62722 17.6036 6.83076 17.6036 8.15946V14.1384H18.4319C18.8659 14.1384 19.2354 14.2597 19.5407 14.5022C19.8469 14.7442 20 15.0371 20 15.3811C20 15.7249 19.8469 16.0182 19.5407 16.2607C19.2354 16.5027 18.8659 16.6237 18.4319 16.6237H1.56805ZM9.99997 20C9.25048 20 8.60945 19.789 8.07691 19.3669C7.54436 18.9449 7.27809 18.4369 7.27809 17.843H12.7219C12.7219 18.4369 12.4556 18.9449 11.9231 19.3669C11.3905 19.789 10.7495 20 9.99997 20Z" fill="#FCDE2F"/>
</svg>
