<svg width="25" height="26" viewBox="0 0 25 26" fill="none" xmlns="http://www.w3.org/2000/svg">
<g clip-path="url(#clip0_1081_2523)">
<path d="M21.4973 5.50331H21.4913C21.4809 5.4012 21.4363 5.30502 21.364 5.23083L21.3635 5.23038L17.2961 1.16292L17.2958 1.16267C17.2532 1.12067 17.2027 1.08756 17.1471 1.06526C17.1074 1.04928 17.0656 1.03908 17.0231 1.0349V1.0291H16.9731H4.77074C4.0692 1.0291 3.50051 1.5978 3.50051 2.29934V24.2636C3.50051 24.9652 4.0692 25.5339 4.77074 25.5339H20.2271C20.9286 25.5339 21.4973 24.9652 21.4973 24.2636V5.55331V5.50331ZM21.4437 5.55331H21.3973V5.60331H21.3932L21.4437 5.55331ZM17.4299 4.73982V2.58844L19.938 5.09656H17.7866C17.692 5.09656 17.6013 5.05898 17.5344 4.99207C17.4675 4.92517 17.4299 4.83443 17.4299 4.73982ZM20.5838 24.2636C20.5838 24.3582 20.5463 24.449 20.4794 24.5159C20.4124 24.5828 20.3217 24.6204 20.2271 24.6204H4.77074C4.67613 24.6204 4.58539 24.5828 4.51849 24.5159C4.45158 24.449 4.414 24.3582 4.414 24.2636V2.29934C4.414 2.20472 4.45158 2.11398 4.51849 2.04708C4.58539 1.98018 4.67613 1.94259 4.77074 1.94259H16.5164V4.73982C16.5164 5.44136 17.0851 6.01005 17.7866 6.01005H20.5838V24.2636Z" fill="#3A120A" stroke="#3A120A" stroke-width="0.1"/>
<path d="M10.4643 14.5502H10.4143V14.6002V15.4137V15.4637H10.4643H18.5992H18.6492V15.4137V14.6002V14.5502H18.5992H10.4643ZM10.4643 9.32062H10.4143V9.37062V10.1841V10.2341H10.4643H18.5992H18.6492V10.1841V9.37062V9.32062H18.5992H10.4643ZM10.4643 19.7798H10.4143V19.8298V20.6433V20.6933H10.4643H18.5992H18.6492V20.6433V19.8298V19.7798H18.5992H10.4643ZM7.61706 13.7367C6.91552 13.7367 6.34682 14.3054 6.34682 15.007C6.34682 15.7085 6.91552 16.2772 7.61706 16.2772C8.3186 16.2772 8.8873 15.7085 8.8873 15.007C8.8873 14.3054 8.3186 13.7367 7.61706 13.7367ZM7.61706 15.3637C7.52244 15.3637 7.4317 15.3261 7.3648 15.2592C7.2979 15.1923 7.26031 15.1016 7.26031 15.007C7.26031 14.9123 7.2979 14.8216 7.3648 14.7547C7.4317 14.6878 7.52244 14.6502 7.61706 14.6502C7.71167 14.6502 7.80241 14.6878 7.86932 14.7547C7.93622 14.8216 7.9738 14.9123 7.9738 15.007C7.9738 15.1016 7.93622 15.1923 7.86932 15.2592C7.80241 15.3261 7.71167 15.3637 7.61706 15.3637ZM7.61706 8.50713C6.91552 8.50713 6.34682 9.07583 6.34682 9.77737C6.34682 10.4789 6.91552 11.0476 7.61706 11.0476C8.3186 11.0476 8.8873 10.4789 8.8873 9.77737C8.8873 9.07583 8.3186 8.50713 7.61706 8.50713ZM7.61706 10.1341C7.52244 10.1341 7.4317 10.0965 7.3648 10.0296C7.2979 9.96272 7.26031 9.87198 7.26031 9.77737C7.26031 9.68275 7.2979 9.59201 7.3648 9.52511C7.4317 9.45821 7.52244 9.42062 7.61706 9.42062C7.71167 9.42062 7.80241 9.45821 7.86932 9.52511C7.93622 9.59201 7.9738 9.68275 7.9738 9.77737C7.9738 9.87198 7.93622 9.96272 7.86932 10.0296C7.80241 10.0965 7.71167 10.1341 7.61706 10.1341ZM7.61706 18.9663C6.91552 18.9663 6.34682 19.535 6.34682 20.2366C6.34682 20.9381 6.91552 21.5068 7.61706 21.5068C8.3186 21.5068 8.8873 20.9381 8.8873 20.2366C8.8873 19.535 8.3186 18.9663 7.61706 18.9663ZM7.61706 20.5933C7.52244 20.5933 7.4317 20.5557 7.3648 20.4888C7.2979 20.4219 7.26031 20.3312 7.26031 20.2366C7.26031 20.1419 7.2979 20.0512 7.3648 19.9843C7.4317 19.9174 7.52244 19.8798 7.61706 19.8798C7.71167 19.8798 7.80241 19.9174 7.86932 19.9843C7.93622 20.0512 7.9738 20.1419 7.9738 20.2366C7.9738 20.3312 7.93622 20.4219 7.86932 20.4888C7.80241 20.5557 7.71167 20.5933 7.61706 20.5933Z" fill="#3A120A" stroke="#3A120A" stroke-width="0.1"/>
</g>
<defs>
<clipPath id="clip0_1081_2523">
<rect width="25" height="25" fill="white" transform="translate(0 0.78125)"/>
</clipPath>
</defs>
</svg>
