<svg width="20" height="20" viewBox="0 0 20 20" fill="none" xmlns="http://www.w3.org/2000/svg">
<mask id="mask0_1_351" style="mask-type:alpha" maskUnits="userSpaceOnUse" x="0" y="0" width="20" height="20">
<rect width="20" height="20" fill="#D9D9D9"/>
</mask>
<g mask="url(#mask0_1_351)">
<path d="M0.687581 17.9375C0.382026 17.9375 0.125081 17.8333 -0.083252 17.625C-0.291585 17.4167 -0.395752 17.1597 -0.395752 16.8542V14.9583C-0.395752 14.3889 -0.260474 13.875 0.0100813 13.4167C0.281192 12.9583 0.645915 12.6111 1.10425 12.375C2.02091 11.9028 2.96869 11.5486 3.94758 11.3125C4.92703 11.0764 5.91675 10.9583 6.91675 10.9583C7.91675 10.9583 8.90286 11.0764 9.87508 11.3125C10.8473 11.5486 11.7917 11.9028 12.7084 12.375C13.1667 12.6111 13.5312 12.9583 13.8017 13.4167C14.0729 13.875 14.2084 14.3889 14.2084 14.9583V16.8542C14.2084 17.1597 14.1042 17.4167 13.8959 17.625C13.6876 17.8333 13.4306 17.9375 13.1251 17.9375H0.687581ZM15.4376 17.9375C15.5765 17.8681 15.7015 17.7464 15.8126 17.5725C15.9237 17.3992 15.9792 17.1597 15.9792 16.8542V14.7083C15.9792 14.125 15.8195 13.4861 15.5001 12.7917C15.1806 12.0972 14.6806 11.5069 14.0001 11.0208C14.8751 11.1042 15.6981 11.2603 16.4692 11.4892C17.2398 11.7186 17.9515 12.0139 18.6042 12.375C19.1876 12.7083 19.632 13.0764 19.9376 13.4792C20.2431 13.8819 20.3959 14.2917 20.3959 14.7083V16.8542C20.3959 17.1597 20.2917 17.4167 20.0834 17.625C19.8751 17.8333 19.6181 17.9375 19.3126 17.9375H15.4376ZM6.89591 9.85416C5.81258 9.85416 4.88897 9.47222 4.12508 8.70833C3.36119 7.94444 2.97925 7.02083 2.97925 5.93749C2.97925 4.85416 3.36119 3.93055 4.12508 3.16666C4.88897 2.40277 5.81258 2.02083 6.89591 2.02083C7.97925 2.02083 8.90286 2.40277 9.66675 3.16666C10.4306 3.93055 10.8126 4.85416 10.8126 5.93749C10.8126 7.02083 10.4306 7.94444 9.66675 8.70833C8.90286 9.47222 7.97925 9.85416 6.89591 9.85416ZM17.0001 5.93749C17.0001 7.02083 16.6181 7.94444 15.8542 8.70833C15.0904 9.47222 14.1667 9.85416 13.0834 9.85416C12.8751 9.85416 12.5904 9.82972 12.2292 9.78083C11.8681 9.7325 11.5834 9.67361 11.3751 9.60416C11.7779 9.07638 12.0801 8.49999 12.2817 7.87499C12.4829 7.24999 12.5834 6.60416 12.5834 5.93749C12.5834 5.27083 12.4829 4.625 12.2817 4C12.0801 3.375 11.7779 2.79861 11.3751 2.27083C11.6529 2.17361 11.9376 2.10749 12.2292 2.07249C12.5209 2.03805 12.8056 2.02083 13.0834 2.02083C14.1667 2.02083 15.0904 2.40277 15.8542 3.16666C16.6181 3.93055 17.0001 4.85416 17.0001 5.93749Z" fill="#717171"/>
</g>
</svg>
