<svg width="20" height="20" viewBox="0 0 20 20" fill="none" xmlns="http://www.w3.org/2000/svg">
<mask id="mask0_1_576" style="mask-type:alpha" maskUnits="userSpaceOnUse" x="0" y="0" width="20" height="20">
<rect width="20" height="20" fill="#D9D9D9"/>
</mask>
<g mask="url(#mask0_1_576)">
<path d="M0.687581 17.9375C0.382026 17.9375 0.125081 17.8333 -0.083252 17.625C-0.291585 17.4166 -0.395752 17.1597 -0.395752 16.8541V14.9583C-0.395752 14.3889 -0.260474 13.875 0.0100813 13.4166C0.281192 12.9583 0.645915 12.6111 1.10425 12.375C2.02091 11.9028 2.96869 11.5486 3.94758 11.3125C4.92703 11.0764 5.91675 10.9583 6.91675 10.9583C7.91675 10.9583 8.90286 11.0764 9.87508 11.3125C10.8473 11.5486 11.7917 11.9028 12.7084 12.375C13.1667 12.6111 13.5312 12.9583 13.8017 13.4166C14.0729 13.875 14.2084 14.3889 14.2084 14.9583V16.8541C14.2084 17.1597 14.1042 17.4166 13.8959 17.625C13.6876 17.8333 13.4306 17.9375 13.1251 17.9375H0.687581ZM15.4376 17.9375C15.5765 17.868 15.7015 17.7464 15.8126 17.5725C15.9237 17.3991 15.9792 17.1597 15.9792 16.8541V14.7083C15.9792 14.125 15.8195 13.4861 15.5001 12.7916C15.1806 12.0972 14.6806 11.5069 14.0001 11.0208C14.8751 11.1041 15.6981 11.2603 16.4692 11.4891C17.2398 11.7186 17.9515 12.0139 18.6042 12.375C19.1876 12.7083 19.632 13.0764 19.9376 13.4791C20.2431 13.8819 20.3959 14.2916 20.3959 14.7083V16.8541C20.3959 17.1597 20.2917 17.4166 20.0834 17.625C19.8751 17.8333 19.6181 17.9375 19.3126 17.9375H15.4376ZM6.89591 9.85415C5.81258 9.85415 4.88897 9.4722 4.12508 8.70831C3.36119 7.94442 2.97925 7.02081 2.97925 5.93748C2.97925 4.85415 3.36119 3.93054 4.12508 3.16665C4.88897 2.40276 5.81258 2.02081 6.89591 2.02081C7.97925 2.02081 8.90286 2.40276 9.66675 3.16665C10.4306 3.93054 10.8126 4.85415 10.8126 5.93748C10.8126 7.02081 10.4306 7.94442 9.66675 8.70831C8.90286 9.4722 7.97925 9.85415 6.89591 9.85415ZM17.0001 5.93748C17.0001 7.02081 16.6181 7.94442 15.8542 8.70831C15.0904 9.4722 14.1667 9.85415 13.0834 9.85415C12.8751 9.85415 12.5904 9.8297 12.2292 9.78081C11.8681 9.73248 11.5834 9.67359 11.3751 9.60415C11.7779 9.07637 12.0801 8.49998 12.2817 7.87498C12.4829 7.24998 12.5834 6.60415 12.5834 5.93748C12.5834 5.27081 12.4829 4.62498 12.2817 3.99998C12.0801 3.37498 11.7779 2.79859 11.3751 2.27081C11.6529 2.17359 11.9376 2.10748 12.2292 2.07248C12.5209 2.03804 12.8056 2.02081 13.0834 2.02081C14.1667 2.02081 15.0904 2.40276 15.8542 3.16665C16.6181 3.93054 17.0001 4.85415 17.0001 5.93748Z" fill="#FCDE2F"/>
</g>
</svg>
