<svg width="18" height="18" viewBox="0 0 18 18" fill="none" xmlns="http://www.w3.org/2000/svg">
<path d="M3.04167 17.1247C2.41667 17.1247 1.8925 16.913 1.46917 16.4897C1.04528 16.0658 0.833336 15.5413 0.833336 14.9163V8.95801C0.833336 7.83301 1.04861 6.77745 1.47917 5.79134C1.90972 4.80523 2.49306 3.94412 3.22917 3.20801C3.96528 2.4719 4.83 1.8919 5.82334 1.46801C6.81611 1.04467 7.875 0.833008 9 0.833008C10.125 0.833008 11.1839 1.04467 12.1767 1.46801C13.17 1.8919 14.0347 2.4719 14.7708 3.20801C15.5069 3.94412 16.0903 4.80523 16.5208 5.79134C16.9514 6.77745 17.1667 7.83301 17.1667 8.95801V14.9163C17.1667 15.5413 16.955 16.0658 16.5317 16.4897C16.1078 16.913 15.5833 17.1247 14.9583 17.1247H13.2917C12.6667 17.1247 12.1425 16.913 11.7192 16.4897C11.2953 16.0658 11.0833 15.5413 11.0833 14.9163V11.6247C11.0833 10.9997 11.2953 10.4752 11.7192 10.0513C12.1425 9.62801 12.6667 9.41634 13.2917 9.41634H14.9583V8.95801C14.9583 7.31912 14.3783 5.92329 13.2183 4.77051C12.0589 3.61773 10.6528 3.04134 9 3.04134C7.34722 3.04134 5.94111 3.61773 4.78167 4.77051C3.62167 5.92329 3.04167 7.31912 3.04167 8.95801V9.41634H4.70834C5.33334 9.41634 5.85778 9.62801 6.28167 10.0513C6.705 10.4752 6.91667 10.9997 6.91667 11.6247V14.9163C6.91667 15.5413 6.705 16.0658 6.28167 16.4897C5.85778 16.913 5.33334 17.1247 4.70834 17.1247H3.04167Z" fill="#717171"/>
</svg>
