<svg width="18" height="18" viewBox="0 0 18 18" fill="none" xmlns="http://www.w3.org/2000/svg">
<path d="M3.04171 17.1247C2.41671 17.1247 1.89254 16.913 1.46921 16.4897C1.04532 16.0658 0.833374 15.5413 0.833374 14.9163V8.95801C0.833374 7.83301 1.04865 6.77745 1.47921 5.79134C1.90976 4.80523 2.4931 3.94412 3.22921 3.20801C3.96532 2.4719 4.83004 1.8919 5.82337 1.46801C6.81615 1.04467 7.87504 0.833008 9.00004 0.833008C10.125 0.833008 11.1839 1.04467 12.1767 1.46801C13.17 1.8919 14.0348 2.4719 14.7709 3.20801C15.507 3.94412 16.0903 4.80523 16.5209 5.79134C16.9514 6.77745 17.1667 7.83301 17.1667 8.95801V14.9163C17.1667 15.5413 16.955 16.0658 16.5317 16.4897C16.1078 16.913 15.5834 17.1247 14.9584 17.1247H13.2917C12.6667 17.1247 12.1425 16.913 11.7192 16.4897C11.2953 16.0658 11.0834 15.5413 11.0834 14.9163V11.6247C11.0834 10.9997 11.2953 10.4752 11.7192 10.0513C12.1425 9.62801 12.6667 9.41634 13.2917 9.41634H14.9584V8.95801C14.9584 7.31912 14.3784 5.92329 13.2184 4.77051C12.0589 3.61773 10.6528 3.04134 9.00004 3.04134C7.34726 3.04134 5.94115 3.61773 4.78171 4.77051C3.62171 5.92329 3.04171 7.31912 3.04171 8.95801V9.41634H4.70837C5.33337 9.41634 5.85782 9.62801 6.28171 10.0513C6.70504 10.4752 6.91671 10.9997 6.91671 11.6247V14.9163C6.91671 15.5413 6.70504 16.0658 6.28171 16.4897C5.85782 16.913 5.33337 17.1247 4.70837 17.1247H3.04171Z" fill="#FCDE2F"/>
</svg>
