<svg width="8" height="12" viewBox="0 0 8 12" fill="none" xmlns="http://www.w3.org/2000/svg">
<path d="M7.8419 3.86143C7.7365 3.95381 7.6117 4 7.46751 4C7.3236 4 7.19895 3.95381 7.09354 3.86143L4.00527 1.15473L0.906456 3.87067C0.808081 3.95689 0.685112 4 0.537549 4C0.389987 4 0.263505 3.95381 0.158103 3.86143C0.0527009 3.76905 0 3.65968 0 3.5333C0 3.40717 0.0527009 3.29792 0.158103 3.20554L3.71014 0.101617C3.75231 0.0646651 3.79798 0.0384297 3.84717 0.0229101C3.89635 0.00763679 3.94906 2.38419e-07 4.00527 2.38419e-07C4.06148 2.38419e-07 4.11419 0.00763679 4.16337 0.0229101C4.21256 0.0384297 4.25823 0.0646651 4.3004 0.101617L7.85244 3.21478C7.95081 3.301 8 3.40717 8 3.5333C8 3.65968 7.9473 3.76905 7.8419 3.86143Z" fill="#717171"/>
<path d="M7.8419 8.13857C7.7365 8.04619 7.6117 8 7.46751 8C7.3236 8 7.19895 8.04619 7.09354 8.13857L4.00527 10.8453L0.906456 8.12933C0.808081 8.04311 0.685112 8 0.537549 8C0.389987 8 0.263505 8.04619 0.158103 8.13857C0.0527009 8.23095 0 8.34032 0 8.4667C0 8.59283 0.0527009 8.70208 0.158103 8.79446L3.71014 11.8984C3.75231 11.9353 3.79798 11.9616 3.84717 11.9771C3.89635 11.9924 3.94906 12 4.00527 12C4.06148 12 4.11419 11.9924 4.16337 11.9771C4.21256 11.9616 4.25823 11.9353 4.3004 11.8984L7.85244 8.78522C7.95081 8.699 8 8.59283 8 8.4667C8 8.34032 7.9473 8.23095 7.8419 8.13857Z" fill="#717171"/>
</svg>
