<svg width="32" height="38" viewBox="0 0 32 38" fill="none" xmlns="http://www.w3.org/2000/svg">
<path fill-rule="evenodd" clip-rule="evenodd" d="M19.5669 20.632C20.0933 21.1637 20.9465 21.1637 21.4729 20.632C22.0174 20.1003 22.0174 19.2387 21.491 18.707L16.2814 13.427C16.1544 13.2987 16.0092 13.207 15.8458 13.1337C15.6824 13.0603 15.5191 13.0237 15.3375 13.0237C15.156 13.0237 14.9745 13.0603 14.8111 13.1337C14.6478 13.207 14.5026 13.2987 14.3755 13.427L9.18408 18.707C8.65767 19.2387 8.65767 20.1003 9.18408 20.632C9.71048 21.1637 10.5636 21.1637 11.09 20.632L13.9762 17.6987V26.5537C13.9762 27.3053 14.5752 27.9103 15.3375 27.9103C16.0818 27.9103 16.6808 27.3053 16.6808 26.5537V17.6987L19.5669 20.632ZM29.4351 13.5473C29.8617 13.5424 30.3263 13.537 30.7484 13.537C31.2022 13.537 31.5834 13.9037 31.5834 14.362V29.102C31.5834 33.6487 27.9167 37.3337 23.4151 37.3337H8.9844C4.24678 37.3337 0.416748 33.4653 0.416748 28.6987V8.93533C0.416748 4.38866 4.06526 0.666992 8.60322 0.666992H18.2963C18.7501 0.666992 19.1313 1.05199 19.1313 1.51033V7.41366C19.1313 10.7687 21.854 13.5187 25.194 13.537C25.9574 13.537 26.6353 13.5428 27.2307 13.5478C27.697 13.5518 28.1127 13.5553 28.4795 13.5553C28.7378 13.5553 29.0728 13.5515 29.4351 13.5473ZM29.9419 10.8713C28.4499 10.8768 26.6928 10.8713 25.4276 10.8585C23.42 10.8585 21.7664 9.18833 21.7664 7.16066V2.32799C21.7664 1.53783 22.7139 1.14549 23.2566 1.71566C24.654 3.18182 26.793 5.42851 28.6013 7.32787C29.3345 8.09803 30.0134 8.81108 30.5664 9.39183C31.0946 9.94733 30.7061 10.8695 29.9419 10.8713Z" fill="#5A5A5A"/>
</svg>
