<svg width="20" height="20" viewBox="0 0 20 20" fill="none" xmlns="http://www.w3.org/2000/svg">
<mask id="mask0_1_354" style="mask-type:alpha" maskUnits="userSpaceOnUse" x="0" y="0" width="20" height="20">
<rect width="20" height="20" fill="#D9D9D9"/>
</mask>
<g mask="url(#mask0_1_354)">
<path d="M10 9.74999C8.94449 9.74999 8.04865 9.38193 7.31254 8.64582C6.57643 7.90971 6.20837 7.01388 6.20837 5.95832C6.20837 4.90277 6.57643 4.00693 7.31254 3.27082C8.04865 2.53471 8.94449 2.16666 10 2.16666C11.0556 2.16666 11.9514 2.53471 12.6875 3.27082C13.4237 4.00693 13.7917 4.90277 13.7917 5.95832C13.7917 7.01388 13.4237 7.90971 12.6875 8.64582C11.9514 9.38193 11.0556 9.74999 10 9.74999ZM4.91671 17.9375C4.29171 17.9375 3.76754 17.7255 3.34421 17.3017C2.92032 16.8783 2.70837 16.3542 2.70837 15.7292V14.9583C2.70837 14.3889 2.84393 13.875 3.11504 13.4167C3.3856 12.9583 3.75004 12.6111 4.20837 12.375C5.12504 11.9028 6.06949 11.5486 7.04171 11.3125C8.01393 11.0764 9.00004 10.9583 10 10.9583C11 10.9583 11.9862 11.0764 12.9584 11.3125C13.9306 11.5486 14.875 11.9028 15.7917 12.375C16.25 12.6111 16.6148 12.9583 16.8859 13.4167C17.1564 13.875 17.2917 14.3889 17.2917 14.9583V15.7292C17.2917 16.3542 17.08 16.8783 16.6567 17.3017C16.2328 17.7255 15.7084 17.9375 15.0834 17.9375H4.91671Z" fill="#FCDE2F"/>
</g>
</svg>
