<svg width="20" height="20" viewBox="0 0 20 20" fill="none" xmlns="http://www.w3.org/2000/svg">
<mask id="mask0_1_1476" style="mask-type:alpha" maskUnits="userSpaceOnUse" x="0" y="0" width="20" height="20">
<rect width="20" height="20" fill="#D9D9D9"/>
</mask>
<g mask="url(#mask0_1_1476)">
<path d="M10 9.74996C8.94444 9.74996 8.04861 9.3819 7.31249 8.64579C6.57638 7.90968 6.20833 7.01385 6.20833 5.95829C6.20833 4.90274 6.57638 4.0069 7.31249 3.27079C8.04861 2.53468 8.94444 2.16663 10 2.16663C11.0556 2.16663 11.9514 2.53468 12.6875 3.27079C13.4236 4.0069 13.7917 4.90274 13.7917 5.95829C13.7917 7.01385 13.4236 7.90968 12.6875 8.64579C11.9514 9.3819 11.0556 9.74996 10 9.74996ZM4.91666 17.9375C4.29166 17.9375 3.7675 17.7255 3.34416 17.3016C2.92027 16.8783 2.70833 16.3541 2.70833 15.7291V14.9583C2.70833 14.3888 2.84388 13.875 3.11499 13.4166C3.38555 12.9583 3.75 12.6111 4.20833 12.375C5.125 11.9027 6.06944 11.5486 7.04166 11.3125C8.01388 11.0763 9 10.9583 10 10.9583C11 10.9583 11.9861 11.0763 12.9583 11.3125C13.9306 11.5486 14.875 11.9027 15.7917 12.375C16.25 12.6111 16.6147 12.9583 16.8858 13.4166C17.1564 13.875 17.2917 14.3888 17.2917 14.9583V15.7291C17.2917 16.3541 17.08 16.8783 16.6567 17.3016C16.2328 17.7255 15.7083 17.9375 15.0833 17.9375H4.91666Z" fill="#717171"/>
</g>
</svg>
